<?xml version="1.0" ?><!DOCTYPE svg  PUBLIC '-//W3C//DTD SVG 1.0//EN'  'http://www.w3.org/TR/2001/REC-SVG-20010904/DTD/svg10.dtd'><svg enable-background="new 0 0 91.8 92.6" id="Layer_1" version="1.0" viewBox="0 0 91.8 92.6" xml:space="preserve" xmlns="http://www.w3.org/2000/svg" xmlns:xlink="http://www.w3.org/1999/xlink"><g><path d="M48.5,50.2v15.1c4.3-0.9,6.5-3.2,6.5-6.9C55,55.2,52.8,52.5,48.5,50.2z" fill="#1E1E1E"/><path d="M38.9,34.2c0,1.9,0.4,3.5,1.3,4.7c0.9,1.2,2.5,2.5,4.8,3.7V27c-1.9,0.4-3.4,1.2-4.5,2.5   C39.4,30.8,38.9,32.4,38.9,34.2z" fill="#1E1E1E"/><path d="M46.9,4.2c-23.5,0-42.5,19-42.5,42.5c0,23.5,19,42.5,42.5,42.5c23.5,0,42.5-19,42.5-42.5   C89.5,23.2,70.4,4.2,46.9,4.2z M57.4,65.8c-2.1,2.1-5.1,3.5-8.9,4.1v7.2H45v-7c-4.8,0-8.6-1-11.6-2.9v-5.8c1.3,1.1,3.1,2.1,5.3,2.8   c2.3,0.8,4.3,1.1,6.3,1.1V48.4c-4.9-2.4-8.1-4.5-9.6-6.5s-2.2-4.3-2.2-7c0-3.2,1.1-6,3.3-8.3c2.2-2.3,5-3.7,8.4-4.2v-6h3.5v5.9   c4.4,0.1,7.4,0.8,9.1,1.9v5.7c-2.3-1.8-5.3-2.7-9.1-2.9v17.6c4.7,2.2,7.8,4.3,9.6,6.4c1.7,2.1,2.6,4.4,2.6,7   C60.6,61,59.5,63.6,57.4,65.8z" fill="#1E1E1E"/></g></svg>